<svg width="49" height="49" viewBox="0 0 49 49" fill="none" xmlns="http://www.w3.org/2000/svg">
<g filter="url(#filter0_ii_1_694)">
<rect x="0.563721" y="0.58252" width="47.564" height="47.564" rx="12" fill="white"/>
</g>
<g filter="url(#filter1_d_1_694)">
<path d="M30.3237 17.7874C30.4472 17.739 30.5698 17.6909 30.6983 17.6579C31.1487 17.5423 32.2359 17.3887 32.1189 18.6424C32.0705 19.2917 31.6313 21.5644 31.2893 24.0222L30.226 30.6301C30.1538 31.079 30.1299 31.5505 29.9137 31.9505C29.7721 32.2124 29.535 32.4727 29.141 32.5559C28.2625 32.741 26.9442 31.9066 26.7 31.721C26.5045 31.5818 23.0384 29.4946 21.8179 28.4746C21.4759 28.1961 21.0851 27.6398 21.8668 26.9905L26.9926 22.3525C27.5785 21.7962 28.1643 20.4977 25.7233 22.0744L19.1944 26.2825C18.9901 26.4142 18.7828 26.5457 18.5482 26.6091C18.1875 26.7065 17.5446 26.784 16.6423 26.5268L15.5583 26.2099C14.1706 25.8042 12.9329 24.6823 14.2986 24.2078C19.1246 22.0533 25.0485 19.8536 30.3237 17.7874Z" fill="#17162B"/>
</g>
<defs>
<filter id="filter0_ii_1_694" x="0.563721" y="-3.41748" width="47.564" height="55.564" filterUnits="userSpaceOnUse" color-interpolation-filters="sRGB">
<feFlood flood-opacity="0" result="BackgroundImageFix"/>
<feBlend mode="normal" in="SourceGraphic" in2="BackgroundImageFix" result="shape"/>
<feColorMatrix in="SourceAlpha" type="matrix" values="0 0 0 0 0 0 0 0 0 0 0 0 0 0 0 0 0 0 127 0" result="hardAlpha"/>
<feOffset dy="4"/>
<feGaussianBlur stdDeviation="2"/>
<feComposite in2="hardAlpha" operator="arithmetic" k2="-1" k3="1"/>
<feColorMatrix type="matrix" values="0 0 0 0 0 0 0 0 0 0 0 0 0 0 0 0 0 0 0.2 0"/>
<feBlend mode="normal" in2="shape" result="effect1_innerShadow_1_694"/>
<feColorMatrix in="SourceAlpha" type="matrix" values="0 0 0 0 0 0 0 0 0 0 0 0 0 0 0 0 0 0 127 0" result="hardAlpha"/>
<feOffset dy="-4"/>
<feGaussianBlur stdDeviation="2"/>
<feComposite in2="hardAlpha" operator="arithmetic" k2="-1" k3="1"/>
<feColorMatrix type="matrix" values="0 0 0 0 1 0 0 0 0 1 0 0 0 0 1 0 0 0 0.15 0"/>
<feBlend mode="normal" in2="effect1_innerShadow_1_694" result="effect2_innerShadow_1_694"/>
</filter>
<filter id="filter1_d_1_694" x="9.70587" y="17.5825" width="26.4218" height="23" filterUnits="userSpaceOnUse" color-interpolation-filters="sRGB">
<feFlood flood-opacity="0" result="BackgroundImageFix"/>
<feColorMatrix in="SourceAlpha" type="matrix" values="0 0 0 0 0 0 0 0 0 0 0 0 0 0 0 0 0 0 127 0" result="hardAlpha"/>
<feOffset dy="4"/>
<feGaussianBlur stdDeviation="2"/>
<feComposite in2="hardAlpha" operator="out"/>
<feColorMatrix type="matrix" values="0 0 0 0 0 0 0 0 0 0 0 0 0 0 0 0 0 0 0.25 0"/>
<feBlend mode="normal" in2="BackgroundImageFix" result="effect1_dropShadow_1_694"/>
<feBlend mode="normal" in="SourceGraphic" in2="effect1_dropShadow_1_694" result="shape"/>
</filter>
</defs>
</svg>
