<svg width="48" height="48" viewBox="0 0 48 48" fill="none" xmlns="http://www.w3.org/2000/svg">
<g filter="url(#filter0_ii_1_639)">
<rect x="6.10352e-05" width="47.564" height="47.564" rx="12" fill="#0E111A"/>
</g>
<g filter="url(#filter1_d_1_639)">
<path d="M25.3904 18.7324C23.9954 19.3104 23.0782 20.581 23.0311 22.0333C23.0303 22.1072 22.9666 22.1646 22.893 22.1578L22.842 22.1531C20.9953 21.9504 19.3694 21.0136 18.253 19.492C18.1775 19.3889 18.0764 19.3061 17.9593 19.2512C17.8422 19.1963 17.7128 19.1712 17.5831 19.1781C17.4534 19.185 17.3276 19.2237 17.2173 19.2907C17.107 19.3577 17.0158 19.4508 16.9522 19.5614L16.8773 19.7015L16.8395 19.7761C16.2844 20.8953 15.9208 22.2556 16.0543 23.6973L16.0775 23.903C16.296 25.6085 17.2355 27.0796 18.995 28.1829L19.0682 28.2271C19.0946 28.243 19.0934 28.2817 19.066 28.2959C18.0508 28.7956 17.122 29.0134 16.1114 28.9742C15.2962 28.944 14.9951 30.0082 15.7115 30.3895C18.4893 31.8674 21.4716 32.3233 24.0432 31.5953C27.1777 30.706 29.5648 28.4127 30.4781 25.2399L30.5761 24.8669C30.7599 24.1186 30.8633 23.3551 30.8857 22.5879C30.8872 22.4234 30.9274 22.2616 31.0029 22.1154L31.1914 21.7507L31.5311 21.101L31.6963 20.7739L31.7874 20.5878C31.992 20.162 32.1395 19.8093 32.2306 19.5101L32.2377 19.4824C32.2402 19.4727 32.2435 19.4634 32.2476 19.4543C32.4174 19.0074 32.1194 18.4309 31.5211 18.4309L31.4269 18.4362C31.3659 18.4435 31.306 18.4579 31.2486 18.4792L31.1822 18.5078C30.9618 18.6122 30.7349 18.7029 30.5028 18.7791L30.2279 18.8658L30.0187 18.9261C29.6446 19.0273 29.2517 18.928 28.9104 18.7443C27.9512 18.2281 26.7687 18.2252 25.5533 18.6698L25.3904 18.7324Z" fill="#61FF00"/>
</g>
<defs>
<filter id="filter0_ii_1_639" x="6.10352e-05" y="-4" width="47.564" height="55.564" filterUnits="userSpaceOnUse" color-interpolation-filters="sRGB">
<feFlood flood-opacity="0" result="BackgroundImageFix"/>
<feBlend mode="normal" in="SourceGraphic" in2="BackgroundImageFix" result="shape"/>
<feColorMatrix in="SourceAlpha" type="matrix" values="0 0 0 0 0 0 0 0 0 0 0 0 0 0 0 0 0 0 127 0" result="hardAlpha"/>
<feOffset dy="4"/>
<feGaussianBlur stdDeviation="2"/>
<feComposite in2="hardAlpha" operator="arithmetic" k2="-1" k3="1"/>
<feColorMatrix type="matrix" values="0 0 0 0 0 0 0 0 0 0 0 0 0 0 0 0 0 0 0.5 0"/>
<feBlend mode="normal" in2="shape" result="effect1_innerShadow_1_639"/>
<feColorMatrix in="SourceAlpha" type="matrix" values="0 0 0 0 0 0 0 0 0 0 0 0 0 0 0 0 0 0 127 0" result="hardAlpha"/>
<feOffset dy="-4"/>
<feGaussianBlur stdDeviation="2"/>
<feComposite in2="hardAlpha" operator="arithmetic" k2="-1" k3="1"/>
<feColorMatrix type="matrix" values="0 0 0 0 1 0 0 0 0 1 0 0 0 0 1 0 0 0 0.15 0"/>
<feBlend mode="normal" in2="effect1_innerShadow_1_639" result="effect2_innerShadow_1_639"/>
</filter>
<filter id="filter1_d_1_639" x="11.3077" y="18.3462" width="24.9871" height="21.5896" filterUnits="userSpaceOnUse" color-interpolation-filters="sRGB">
<feFlood flood-opacity="0" result="BackgroundImageFix"/>
<feColorMatrix in="SourceAlpha" type="matrix" values="0 0 0 0 0 0 0 0 0 0 0 0 0 0 0 0 0 0 127 0" result="hardAlpha"/>
<feOffset dy="4"/>
<feGaussianBlur stdDeviation="2"/>
<feComposite in2="hardAlpha" operator="out"/>
<feColorMatrix type="matrix" values="0 0 0 0 0 0 0 0 0 0 0 0 0 0 0 0 0 0 0.25 0"/>
<feBlend mode="normal" in2="BackgroundImageFix" result="effect1_dropShadow_1_639"/>
<feBlend mode="normal" in="SourceGraphic" in2="effect1_dropShadow_1_639" result="shape"/>
</filter>
</defs>
</svg>
