<svg width="32" height="28" viewBox="0 0 32 28" fill="none" xmlns="http://www.w3.org/2000/svg">
<path fill-rule="evenodd" clip-rule="evenodd" d="M29.4575 8.17571C29.3642 8.17121 29.2708 8.16961 29.1775 8.17091H25.2813C22.0939 8.17091 19.3642 10.7006 19.3642 14C19.3642 17.2994 22.0939 19.8291 25.2829 19.8291H29.1759C29.2735 19.8291 29.3679 19.8291 29.4559 19.8227C30.1138 19.7807 30.734 19.5009 31.2009 19.0355C31.6678 18.57 31.9495 17.9507 31.9936 17.293C32 17.1986 32 17.0977 32 17.0049V10.995C32 10.9022 32 10.8014 31.9936 10.707C31.9496 10.0495 31.668 9.43041 31.2015 8.96503C30.7349 8.49964 30.1151 8.21969 29.4575 8.17731V8.17571ZM24.9404 15.5537C25.7613 15.5537 26.4285 14.8592 26.4285 14C26.4285 13.1408 25.7613 12.4463 24.9404 12.4463C24.1196 12.4463 23.454 13.1408 23.454 14C23.454 14.8592 24.118 15.5537 24.9404 15.5537Z" fill="#61FF00"/>
<path fill-rule="evenodd" clip-rule="evenodd" d="M29.1758 22.1604C29.2295 22.1585 29.2828 22.1693 29.3314 22.1918C29.3801 22.2143 29.4229 22.2479 29.4562 22.2899C29.4895 22.332 29.5125 22.3812 29.5233 22.4338C29.534 22.4863 29.5323 22.5407 29.5183 22.5924C29.2079 23.6997 28.7166 24.6437 27.9278 25.4374C26.7741 26.6006 25.3101 27.1175 23.502 27.3623C21.7451 27.6007 19.5018 27.6007 16.6664 27.6007H13.4071C10.5733 27.6007 8.32841 27.6007 6.57153 27.3623C4.76344 27.1175 3.29936 26.6006 2.14571 25.4374C0.992049 24.2757 0.480024 22.8004 0.236812 20.9779C0 19.2067 0 16.9441 0 14.088V13.912C0 11.0559 0 8.79174 0.236812 7.02205C0.480024 5.19956 0.992049 3.72749 2.14411 2.56103C3.29776 1.39937 4.76184 0.880947 6.56993 0.637735C8.32841 0.399323 10.5733 0.399323 13.4071 0.399323H16.6664C19.5002 0.399323 21.7451 0.399323 23.502 0.637735C25.3101 0.882547 26.7741 1.39937 27.9278 2.56103C28.7166 3.35627 29.2079 4.30032 29.5183 5.40917C29.532 5.46083 29.5335 5.51499 29.5226 5.56733C29.5117 5.61966 29.4887 5.66871 29.4554 5.71055C29.4221 5.75238 29.3795 5.78585 29.3309 5.80826C29.2824 5.83067 29.2293 5.8414 29.1758 5.83959H25.2829C20.9082 5.83959 17.0536 9.32297 17.0536 14C17.0536 18.677 20.9098 22.1604 25.2845 22.1604H29.1758ZM5.78269 6.61723C5.63035 6.61786 5.47962 6.64849 5.33912 6.70737C5.19861 6.76625 5.07108 6.85223 4.96381 6.9604C4.85653 7.06856 4.77161 7.1968 4.71389 7.33779C4.65618 7.47878 4.6268 7.62975 4.62743 7.78209C4.62743 8.42692 5.14426 8.94855 5.78269 8.94855H11.9526C12.5926 8.94855 13.1095 8.42692 13.1095 7.78209C13.1103 7.47428 12.9889 7.17871 12.772 6.9603C12.5551 6.74189 12.2604 6.6185 11.9526 6.61723H5.78269Z" fill="#61FF00"/>
</svg>
