<svg width="29" height="32" viewBox="0 0 29 32" fill="none" xmlns="http://www.w3.org/2000/svg">
<path fill-rule="evenodd" clip-rule="evenodd" d="M1.88822 1.8752C-1.19209e-07 3.7488 0 6.7664 0 12.8V19.2C0 25.2336 -1.19209e-07 28.2512 1.88822 30.1248C3.77483 32 6.81339 32 12.8889 32H16.1111C22.1866 32 25.2252 32 27.1118 30.1248C29 28.2512 29 25.2336 29 19.2V12.8C29 6.7664 29 3.7488 27.1118 1.8752C25.2252 -2.38419e-07 22.1866 0 16.1111 0H12.8889C6.81339 0 3.77483 -2.38419e-07 1.88822 1.8752ZM6.84722 9.6C6.84722 9.28174 6.97453 8.97651 7.20114 8.75147C7.42774 8.52643 7.73509 8.4 8.05556 8.4H20.9444C21.2649 8.4 21.5723 8.52643 21.7989 8.75147C22.0255 8.97651 22.1528 9.28174 22.1528 9.6C22.1528 9.91826 22.0255 10.2235 21.7989 10.4485C21.5723 10.6736 21.2649 10.8 20.9444 10.8H8.05556C7.73509 10.8 7.42774 10.6736 7.20114 10.4485C6.97453 10.2235 6.84722 9.91826 6.84722 9.6ZM6.84722 16C6.84722 15.6817 6.97453 15.3765 7.20114 15.1515C7.42774 14.9264 7.73509 14.8 8.05556 14.8H20.9444C21.2649 14.8 21.5723 14.9264 21.7989 15.1515C22.0255 15.3765 22.1528 15.6817 22.1528 16C22.1528 16.3183 22.0255 16.6235 21.7989 16.8485C21.5723 17.0736 21.2649 17.2 20.9444 17.2H8.05556C7.73509 17.2 7.42774 17.0736 7.20114 16.8485C6.97453 16.6235 6.84722 16.3183 6.84722 16ZM8.05556 21.2C7.73509 21.2 7.42774 21.3264 7.20114 21.5515C6.97453 21.7765 6.84722 22.0817 6.84722 22.4C6.84722 22.7183 6.97453 23.0235 7.20114 23.2485C7.42774 23.4736 7.73509 23.6 8.05556 23.6H16.1111C16.4316 23.6 16.7389 23.4736 16.9655 23.2485C17.1921 23.0235 17.3194 22.7183 17.3194 22.4C17.3194 22.0817 17.1921 21.7765 16.9655 21.5515C16.7389 21.3264 16.4316 21.2 16.1111 21.2H8.05556Z" fill="#61FF00"/>
</svg>
