<svg width="27" height="34" viewBox="0 0 27 34" fill="none" xmlns="http://www.w3.org/2000/svg">
<path d="M13.5 34C9.59062 33.0083 6.363 30.7485 3.81713 27.2204C1.27125 23.6923 -0.00112425 19.7755 7.45362e-07 15.47V5.1L13.5 0L27 5.1V15.47C27 19.7767 25.7271 23.694 23.1812 27.2221C20.6353 30.7502 17.4082 33.0095 13.5 34ZM13.5 30.43C16.2281 29.58 18.5062 27.901 20.3344 25.3929C22.1625 22.8848 23.2313 20.0872 23.5406 17H13.5V3.6125L3.375 7.4375V16.235C3.375 16.4333 3.40313 16.6883 3.45938 17H13.5V30.43Z" fill="#61FF00"/>
</svg>
