<svg width="26" height="34" viewBox="0 0 26 34" fill="none" xmlns="http://www.w3.org/2000/svg">
<path d="M3.25 33.5C2.35625 33.5 1.59088 33.1766 0.953877 32.5298C0.316877 31.883 -0.00108057 31.1064 2.75891e-06 30.2V10.4C2.75891e-06 9.4925 0.318502 8.71535 0.955502 8.06855C1.5925 7.42175 2.35734 7.0989 3.25 7.1H6.5C6.5 5.285 7.13646 3.73125 8.40938 2.43875C9.68229 1.14625 11.2125 0.5 13 0.5C14.7875 0.5 16.3177 1.14625 17.5906 2.43875C18.8635 3.73125 19.5 5.285 19.5 7.1H22.75C23.6437 7.1 24.4091 7.4234 25.0461 8.0702C25.6831 8.717 26.0011 9.4936 26 10.4V30.2C26 31.1075 25.6815 31.8846 25.0445 32.5314C24.4075 33.1782 23.6427 33.5011 22.75 33.5H3.25ZM8.125 15.35C8.58542 15.35 8.97163 15.1916 9.28363 14.8748C9.59563 14.558 9.75108 14.1664 9.75 13.7V10.4H6.5V13.7C6.5 14.1675 6.656 14.5596 6.968 14.8764C7.28 15.1932 7.66567 15.3511 8.125 15.35ZM9.75 7.1H16.25C16.25 6.1925 15.9315 5.41535 15.2945 4.76855C14.6575 4.12175 13.8927 3.7989 13 3.8C12.1063 3.8 11.3409 4.1234 10.7039 4.7702C10.0669 5.417 9.74892 6.1936 9.75 7.1ZM17.875 15.35C18.3354 15.35 18.7216 15.1916 19.0336 14.8748C19.3456 14.558 19.5011 14.1664 19.5 13.7V10.4H16.25V13.7C16.25 14.1675 16.406 14.5596 16.718 14.8764C17.03 15.1932 17.4157 15.3511 17.875 15.35Z" fill="#61FF00"/>
</svg>
