<svg width="30" height="30" viewBox="0 0 30 30" fill="none" xmlns="http://www.w3.org/2000/svg">
<path d="M26.4286 14.2857H24.2857V8.57143C24.2857 7.81367 23.9847 7.08694 23.4489 6.55112C22.9131 6.01531 22.1863 5.71429 21.4286 5.71429H15.7143V3.57143C15.7143 2.62423 15.338 1.71582 14.6682 1.04605C13.9985 0.376274 13.0901 0 12.1429 0C11.1957 0 10.2872 0.376274 9.61748 1.04605C8.9477 1.71582 8.57143 2.62423 8.57143 3.57143V5.71429H2.85714C2.09938 5.71429 1.37266 6.01531 0.836838 6.55112C0.301019 7.08694 0 7.81367 0 8.57143V14H2.14286C4.28571 14 6 15.7143 6 17.8571C6 20 4.28571 21.7143 2.14286 21.7143H0V27.1429C0 27.9006 0.301019 28.6273 0.836838 29.1632C1.37266 29.699 2.09938 30 2.85714 30H8.28572V27.8571C8.28572 25.7143 10 24 12.1429 24C14.2857 24 16 25.7143 16 27.8571V30H21.4286C22.1863 30 22.9131 29.699 23.4489 29.1632C23.9847 28.6273 24.2857 27.9006 24.2857 27.1429V21.4286H26.4286C27.3758 21.4286 28.2842 21.0523 28.954 20.3825C29.6237 19.7128 30 18.8043 30 17.8571C30 16.9099 29.6237 16.0015 28.954 15.3318C28.2842 14.662 27.3758 14.2857 26.4286 14.2857Z" fill="#61FF00"/>
</svg>
